<svg xmlns="http://www.w3.org/2000/svg" viewBox="0 0 2400 1000" width="2400" height="1000" preserveAspectRatio="xMidYMid slice"><defs><linearGradient id="gbg" x1="0" y1="0" x2="0.35" y2="1"><stop offset="0" stop-color="#0A0B0B" stop-opacity="1"/><stop offset="0.6" stop-color="#101213" stop-opacity="1"/><stop offset="1" stop-color="#181B1D" stop-opacity="1"/></linearGradient></defs><rect width="2400" height="1000" fill="url(#gbg)"/><rect x="1180.0" y="-30.0" width="174.3" height="204.0" fill="#0D0E0F" opacity="1"/><rect x="1364.3" y="-30.0" width="174.3" height="204.0" fill="#191C1D" opacity="1"/><rect x="1548.6" y="-30.0" width="174.3" height="204.0" fill="#131516" opacity="1"/><rect x="1732.9" y="-30.0" width="174.3" height="204.0" fill="#0D0E0F" opacity="1"/><rect x="1917.1" y="-30.0" width="174.3" height="204.0" fill="#191C1D" opacity="1"/><rect x="2101.4" y="-30.0" width="174.3" height="204.0" fill="#131516" opacity="1"/><rect x="2285.7" y="-30.0" width="174.3" height="204.0" fill="#0D0E0F" opacity="1"/><rect x="1180.0" y="184.0" width="174.3" height="204.0" fill="#131516" opacity="1"/><rect x="1364.3" y="184.0" width="174.3" height="204.0" fill="#1F2325" opacity="1"/><rect x="1548.6" y="184.0" width="174.3" height="204.0" fill="#191C1D" opacity="1"/><rect x="1732.9" y="184.0" width="174.3" height="204.0" fill="#131516" opacity="1"/><rect x="1917.1" y="184.0" width="174.3" height="204.0" fill="#1F2325" opacity="1"/><rect x="2101.4" y="184.0" width="174.3" height="204.0" fill="#191C1D" opacity="1"/><rect x="2285.7" y="184.0" width="174.3" height="204.0" fill="#131516" opacity="1"/><rect x="1180.0" y="398.0" width="174.3" height="204.0" fill="#191C1D" opacity="1"/><rect x="1364.3" y="398.0" width="174.3" height="204.0" fill="#262B2D" opacity="1"/><rect x="1548.6" y="398.0" width="174.3" height="204.0" fill="#1F2325" opacity="1"/><rect x="1732.9" y="398.0" width="174.3" height="204.0" fill="#191C1D" opacity="1"/><rect x="1917.1" y="398.0" width="174.3" height="204.0" fill="#262B2D" opacity="1"/><rect x="2101.4" y="398.0" width="174.3" height="204.0" fill="#1F2325" opacity="1"/><rect x="2285.7" y="398.0" width="174.3" height="204.0" fill="#191C1D" opacity="1"/><rect x="1180.0" y="612.0" width="174.3" height="204.0" fill="#262B2D" opacity="1"/><rect x="1364.3" y="612.0" width="174.3" height="204.0" fill="#373E41" opacity="1"/><rect x="1548.6" y="612.0" width="174.3" height="204.0" fill="#2E3437" opacity="1"/><rect x="1732.9" y="612.0" width="174.3" height="204.0" fill="#262B2D" opacity="1"/><rect x="1917.1" y="612.0" width="174.3" height="204.0" fill="#373E41" opacity="1"/><rect x="2101.4" y="612.0" width="174.3" height="204.0" fill="#2E3437" opacity="1"/><rect x="2285.7" y="612.0" width="174.3" height="204.0" fill="#262B2D" opacity="1"/><rect x="1180.0" y="826.0" width="174.3" height="204.0" fill="#2E3437" opacity="1"/><rect x="1364.3" y="826.0" width="174.3" height="204.0" fill="#414A4E" opacity="1"/><rect x="1548.6" y="826.0" width="174.3" height="204.0" fill="#373E41" opacity="1"/><rect x="1732.9" y="826.0" width="174.3" height="204.0" fill="#2E3437" opacity="1"/><rect x="1917.1" y="826.0" width="174.3" height="204.0" fill="#414A4E" opacity="1"/><rect x="2101.4" y="826.0" width="174.3" height="204.0" fill="#373E41" opacity="1"/><rect x="2285.7" y="826.0" width="174.3" height="204.0" fill="#2E3437" opacity="1"/><rect x="1180" y="0" width="1220" height="1000" fill="#0A0B0B" opacity="0.5"/><line x1="0" y1="500" x2="2400" y2="500" stroke="#FFFFFF" stroke-opacity="0.06" stroke-width="3"/></svg>